<?xml version="1.0" encoding="UTF-8" standalone="no"?>
<!-- Created with Inkscape (http://www.inkscape.org/) -->

<svg
   width="69.126389mm"
   height="63.927452mm"
   viewBox="0 0 69.126389 63.927452"
   version="1.1"
   id="svg5"
   inkscape:version="1.2.2 (732a01da63, 2022-12-09)"
   sodipodi:docname="wtcat_logo.svg"
   xmlns:inkscape="http://www.inkscape.org/namespaces/inkscape"
   xmlns:sodipodi="http://sodipodi.sourceforge.net/DTD/sodipodi-0.dtd"
   xmlns:xlink="http://www.w3.org/1999/xlink"
   xmlns="http://www.w3.org/2000/svg"
   xmlns:svg="http://www.w3.org/2000/svg">
  <sodipodi:namedview
     id="namedview7"
     pagecolor="#505050"
     bordercolor="#eeeeee"
     borderopacity="1"
     inkscape:showpageshadow="0"
     inkscape:pageopacity="0"
     inkscape:pagecheckerboard="0"
     inkscape:deskcolor="#505050"
     inkscape:document-units="mm"
     showgrid="false"
     inkscape:zoom="2.1089995"
     inkscape:cx="194.87913"
     inkscape:cy="259.36468"
     inkscape:window-width="1920"
     inkscape:window-height="1017"
     inkscape:window-x="-8"
     inkscape:window-y="-8"
     inkscape:window-maximized="1"
     inkscape:current-layer="layer1" />
  <defs
     id="defs2">
    <clipPath
       clipPathUnits="userSpaceOnUse"
       id="clipPath3523">
      <use
         x="0"
         y="0"
         xlink:href="#g3519"
         id="use3525" />
    </clipPath>
  </defs>
  <g
     inkscape:label="Слой 1"
     inkscape:groupmode="layer"
     id="layer1"
     transform="translate(-61.065843,-46.185813)">
    <g
       id="g3521"
       clip-path="url(#clipPath3523)"
       inkscape:export-filename="wtcat_ico.png"
       inkscape:export-xdpi="25.428827"
       inkscape:export-ydpi="25.428827">
      <g
         inkscape:label="Clip"
         id="g3519">
        <path
           id="rect111"
           style="display:inline;fill:#141414;fill-opacity:1;stroke-width:0.290004"
           d="m 127.38706,85.855299 -6.12108,6.121073 -8.33851,-8.338509 -7.984,7.984009 -8.693531,-8.694043 -7.984009,7.984009 -8.870776,-8.870777 -8.338509,8.33851 -7.185608,-7.185092 v 11.556414 c 0,8.510977 6.851905,15.362367 15.362886,15.362367 h 32.790247 c 8.51098,0 15.36289,-6.85139 15.36289,-15.362367 z"
           sodipodi:nodetypes="cccccccccssssc" />
        <path
           id="path15027"
           style="display:inline;fill:#141414;fill-opacity:1;stroke-width:0.290004"
           d="m 79.233923,46.185811 c -8.510981,0 -15.362886,6.851906 -15.362886,15.362887 v 13.233817 l 7.185608,7.185092 8.338509,-8.33851 8.870776,8.870777 7.984009,-7.984009 8.693531,8.694043 7.984,-7.984009 8.33851,8.338509 6.12108,-6.121073 V 61.548698 c 0,-8.510981 -6.85191,-15.362887 -15.36289,-15.362887 z"
           inkscape:label="path15027"
           sodipodi:nodetypes="sscccccccccsss" />
        <path
           id="text3588"
           style="font-size:16.8879px;fill:#e0973a;fill-opacity:1;fill-rule:nonzero;stroke:none;stroke-width:0.385628;stroke-dasharray:none;stroke-opacity:1"
           inkscape:label="text3588"
           d="m 70.160575,89.483501 -4.846732,-4.846216 1.540991,5.225005 h 3.190503 z" />
        <path
           id="path15049"
           style="font-size:16.8879px;fill:#e0973a;fill-opacity:1;fill-rule:nonzero;stroke:none;stroke-width:0.385628;stroke-dasharray:none;stroke-opacity:1"
           inkscape:label="text3588"
           d="m 79.717615,82.363522 -0.322461,-0.322461 -5.719031,5.719031 0.639238,2.102198 h 3.190502 z" />
        <path
           id="path15045"
           style="font-size:16.8879px;fill:#e0973a;fill-opacity:1;fill-rule:nonzero;stroke:none;stroke-width:0.385628;stroke-dasharray:none;stroke-opacity:1"
           inkscape:label="text3588"
           d="M 87.216382,89.86229 85.565837,88.211744 V 89.86229 Z" />
        <path
           id="path15043"
           style="font-size:16.8879px;fill:#e0973a;fill-opacity:1;fill-rule:nonzero;stroke:none;stroke-width:0.385628;stroke-dasharray:none;stroke-opacity:1"
           inkscape:label="text3588"
           d="m 123.38007,89.86229 h 0.95136 v -0.951364 z" />
        <path
           id="path15039"
           style="font-size:16.8879px;fill:#e0973a;fill-opacity:1;fill-rule:nonzero;stroke:none;stroke-width:0.385628;stroke-dasharray:none;stroke-opacity:1"
           inkscape:label="text3588"
           d="m 106.70305,89.86229 h 2.2996 l 0.70952,-2.350761 h 4.0504 l 0.70951,2.350761 h 3.59823 l -0.53278,-1.614372 -4.61006,-4.610055 -0.25683,0.256832 0.33848,1.121895 h -1.46037 z" />
        <path
           id="path15033"
           style="font-size:16.8879px;fill:#e0973a;fill-opacity:1;fill-rule:nonzero;stroke:none;stroke-width:0.385628;stroke-dasharray:none;stroke-opacity:1"
           inkscape:label="text3588"
           d="m 96.614258,83.292148 -0.364319,-0.364319 -2.842721,2.842721 c 0.127659,0.508071 0.30421,0.975895 0.536402,1.398881 0.51975,0.939548 1.225612,1.651502 2.117183,2.13527 0.89557,0.483767 1.906982,0.725537 3.03444,0.725537 0.899568,0 1.689177,-0.138061 2.368847,-0.413928 0.3537,-0.14356 0.67737,-0.311096 0.97152,-0.502295 l -2.1978,-2.198316 c -0.0775,0.0363 -0.15754,0.0702 -0.24288,0.09819 -0.243883,0.07596 -0.519488,0.113688 -0.82734,0.113688 -0.53974,0 -1.001629,-0.125876 -1.385445,-0.377755 -0.383815,-0.255877 -0.677698,-0.635707 -0.8816,-1.139465 -0.199904,-0.507756 -0.299723,-1.137652 -0.299723,-1.889291 0,-0.147718 0.005,-0.289981 0.01344,-0.428914 z" />
      </g>
      <path
         id="path15051"
         style="font-size:16.8879px;fill:#e0973a;fill-opacity:1;fill-rule:nonzero;stroke:none;stroke-width:0.385628;stroke-dasharray:none;stroke-opacity:1"
         inkscape:label="text3588"
         d="m 79.717615,73.951558 1.41025,-4.78317 h -3.71812 l -1.678967,7.580416 h -0.09612 l -1.991093,-7.580416 h -2.926436 l -1.991093,7.556128 h -0.09612 L 66.950949,69.168388 H 63.23283 l 2.08101,7.056933 4.846732,4.846216 1.971973,-6.481775 h 0.0956 l 1.447974,4.758366 5.719031,-5.719031 z" />
      <path
         id="path15047"
         style="font-size:16.8879px;fill:#e0973a;fill-opacity:1;fill-rule:nonzero;stroke:none;stroke-width:0.385628;stroke-dasharray:none;stroke-opacity:1"
         inkscape:label="text3588"
         d="m 87.216382,81.450326 h 1.636076 v -9.59528 h 3.693831 V 69.168388 H 81.871488 v 2.686658 h 3.694349 v 7.944734 z" />
      <path
         id="path15041"
         style="font-size:16.8879px;fill:#e0973a;fill-opacity:1;fill-rule:nonzero;stroke:none;stroke-width:0.385628;stroke-dasharray:none;stroke-opacity:1"
         inkscape:label="text3588"
         d="m 123.38007,81.450326 0.95136,-0.951364 v -8.643916 h 3.69383 v -2.686658 h -10.6748 v 2.686658 h 3.69435 v 9.59528 z" />
      <path
         id="path15037"
         style="font-size:16.8879px;fill:#e0973a;fill-opacity:1;fill-rule:nonzero;stroke:none;stroke-width:0.385628;stroke-dasharray:none;stroke-opacity:1"
         inkscape:label="text3588"
         d="m 106.70305,81.450326 4.8457,-4.8457 h -1.08314 l 1.2237,-4.054016 h 0.0961 l 0.88522,2.932121 0.25683,-0.256832 4.61006,4.610055 -3.52123,-10.667566 h -4.55786 l -4.05402,12.281938 z" />
      <path
         id="path15035"
         style="font-size:16.8879px;fill:#e0973a;fill-opacity:1;fill-rule:nonzero;stroke:none;stroke-width:0.385628;stroke-dasharray:none;stroke-opacity:1"
         inkscape:label="text3588"
         d="m 100.23781,78.503735 2.1978,2.198316 c 0.27109,-0.176214 0.51742,-0.372433 0.73794,-0.589112 0.46377,-0.45578 0.82144,-0.951505 1.07332,-1.487247 0.25188,-0.539741 0.39772,-1.0693 0.4377,-1.589051 l -3.38223,-0.02429 c -0.04,0.263873 -0.11815,0.501753 -0.23409,0.713651 -0.11195,0.2079 -0.25779,0.385889 -0.4377,0.533818 -0.11695,0.09616 -0.24875,0.176471 -0.39274,0.243912 z" />
      <path
         id="path15031"
         style="font-size:16.8879px;fill:#e0973a;fill-opacity:1;fill-rule:nonzero;stroke:none;stroke-width:0.385628;stroke-dasharray:none;stroke-opacity:1"
         inkscape:label="text3588"
         d="m 99.095243,69.000439 c -1.103469,0 -2.102697,0.24177 -2.998266,0.725538 -0.89557,0.479769 -1.607524,1.18952 -2.13527,2.129069 -0.527747,0.93555 -0.791683,2.08671 -0.791683,3.454052 0,0.747368 0.08129,1.429016 0.237194,2.049488 l 2.842721,-2.842721 0.364319,0.364319 c 0.03222,-0.530401 0.124844,-0.997553 0.280086,-1.399915 0.199904,-0.507756 0.4921,-0.897568 0.875916,-1.169437 0.387813,-0.27187 0.861371,-0.407727 1.421101,-0.407727 0.319847,0 0.60595,0.04602 0.857829,0.137976 0.25188,0.08796 0.46539,0.21552 0.6413,0.383439 0.17992,0.163921 0.32018,0.360187 0.42013,0.588078 0.10395,0.22789 0.16774,0.481328 0.19172,0.761194 h 3.38223 c -0.064,-0.763633 -0.24585,-1.441236 -0.54571,-2.032951 -0.29985,-0.591716 -0.69576,-1.089127 -1.18752,-1.492932 -0.49176,-0.407804 -1.06346,-0.717761 -1.71514,-0.929659 -0.65169,-0.211899 -1.365329,-0.317811 -2.140957,-0.317811 z" />
    </g>
    <path
       style="display:inline;fill:none;fill-opacity:1;fill-rule:nonzero;stroke:#ffffff;stroke-width:2.665;stroke-dasharray:none;stroke-opacity:1"
       d="m 62.008064,77.152688 9.048388,9.04839 8.338709,-8.33871 8.870968,8.87096 7.983871,-7.98387 8.69355,8.69355 7.98387,-7.98387 8.33871,8.33871 7.98387,-7.98387"
       id="path3189" />
  </g>
</svg>
